<svg xmlns="http://www.w3.org/2000/svg" width="32" height="32" viewBox="0 0 32 32">
  <!-- Background circle -->
  <circle cx="16" cy="16" r="16" fill="#2d7d32"/>
  
  <!-- Leaf icon -->
  <path d="M16 4c-2 0-4 1-5 3-1-2-3-3-5-3v2c1 0 2 1 3 2-1 1-2 2-2 4 0 2 1 3 2 4-1 1-2 2-2 3v2c2 0 4-1 5-3 1 2 3 3 5 3v-2c-1 0-2-1-3-2 1-1 2-2 2-4 0-2-1-3-2-4 1-1 2-2 2-3V4z" fill="#4caf50"/>
  
  <!-- Leaf stem -->
  <rect x="15" y="20" width="2" height="8" fill="#2e7d32"/>
  
  <!-- Small decorative elements -->
  <circle cx="8" cy="12" r="1" fill="#66bb6a" opacity="0.7"/>
  <circle cx="24" cy="12" r="1" fill="#66bb6a" opacity="0.7"/>
  <circle cx="12" cy="8" r="0.5" fill="#66bb6a" opacity="0.5"/>
  <circle cx="20" cy="8" r="0.5" fill="#66bb6a" opacity="0.5"/>
</svg>
